<?xml version="1.0" standalone="no"?>
<!DOCTYPE svg PUBLIC "-//W3C//DTD SVG 20010904//EN"
 "http://www.w3.org/TR/2001/REC-SVG-20010904/DTD/svg10.dtd">
<svg version="1.0" xmlns="http://www.w3.org/2000/svg"
 width="452.000000pt" height="244.000000pt" viewBox="0 0 452.000000 244.000000"
 preserveAspectRatio="xMidYMid meet">

<g transform="translate(0.000000,244.000000) scale(0.100000,-0.100000)"
fill="#000000" stroke="none">
<path d="M115 2416 c-87 -39 -126 -136 -90 -224 19 -46 2101 -2133 2157 -2163
47 -24 109 -24 156 0 56 30 2138 2117 2157 2163 28 70 13 139 -41 190 -50 46
-119 61 -180 38 -15 -6 -472 -453 -1017 -993 -544 -540 -994 -983 -1001 -985
-6 -1 -452 439 -991 979 -573 574 -993 987 -1012 995 -40 17 -99 17 -138 0z"/>
</g>
</svg>
