<?xml version="1.0" standalone="no"?>
<!DOCTYPE svg PUBLIC "-//W3C//DTD SVG 20010904//EN"
 "http://www.w3.org/TR/2001/REC-SVG-20010904/DTD/svg10.dtd">
<svg version="1.0" xmlns="http://www.w3.org/2000/svg"
 width="744.000000pt" height="1052.000000pt" viewBox="0 0 744.000000 1052.000000"
 preserveAspectRatio="xMidYMid meet">

<g transform="translate(0.000000,1052.000000) scale(0.100000,-0.100000)"
fill="#FFFFFF" stroke="none">
<path d="M231 5927 c2 -2 157 -152 345 -334 l341 -331 -336 -336 -336 -336
130 0 130 0 297 290 296 290 94 0 93 0 -290 -290 -290 -290 131 0 130 0 298
290 298 290 95 0 94 0 -293 -290 -293 -289 131 -1 132 0 298 290 298 290 2113
0 c1162 0 2113 -3 2113 -6 0 -6 -257 -466 -303 -543 l-21 -35 94 50 c52 28
339 178 637 334 299 156 543 286 543 290 0 8 -1251 663 -1256 657 -3 -2 63
-124 146 -271 83 -147 154 -274 157 -282 4 -12 -291 -14 -2109 -14 l-2114 0
-298 290 -298 290 -137 0 -136 0 120 -118 c66 -64 200 -195 297 -290 l176
-172 -93 0 -93 0 -298 290 -298 290 -136 0 -135 -1 295 -289 295 -289 -93 -1
-94 0 -296 290 -297 290 -139 0 c-77 0 -137 -1 -135 -3z"/>
</g>
</svg>
