<?xml version="1.0" standalone="no"?>
<!DOCTYPE svg PUBLIC "-//W3C//DTD SVG 20010904//EN"
 "http://www.w3.org/TR/2001/REC-SVG-20010904/DTD/svg10.dtd">
<svg version="1.0" xmlns="http://www.w3.org/2000/svg"
 viewBox="0 0 214.000000 642.000000"
 preserveAspectRatio="none">

<g transform="translate(0.000000,642.000000) scale(0.100000,-0.100000)"
fill="#fc5203" stroke="none">
<path d="M0 3210 l0 -3210 1070 0 1070 0 0 3210 0 3210 -1070 0 -1070 0 0
-3210z m340 3057 c0 -1 -43 -45 -95 -97 l-95 -95 0 98 0 97 95 0 c52 0 95 -1
95 -3z m160 -342 l-345 -345 -3 147 -3 147 198 198 198 198 150 0 150 0 -345
-345z m250 -250 l-595 -595 -3 147 -3 147 448 448 448 448 150 0 150 0 -595
-595z m250 -250 l-845 -845 -3 147 -3 147 698 698 698 698 150 0 150 0 -845
-845z m73 -427 l-918 -918 -3 147 -3 147 918 918 918 918 3 -147 3 -147 -918
-918z m0 -500 l-918 -918 -3 147 -3 147 918 918 918 918 3 -147 3 -147 -918
-918z m0 -500 l-918 -918 -3 147 -3 147 918 918 918 918 3 -147 3 -147 -918
-918z m0 -540 l-918 -918 -3 167 -3 167 918 918 918 918 3 -167 3 -167 -918
-918z m0 -510 l-918 -918 -3 152 -3 152 918 918 918 918 3 -152 3 -152 -918
-918z m0 -500 l-918 -918 -3 147 -3 147 918 918 918 918 3 -147 3 -147 -918
-918z m0 -500 l-918 -918 -3 147 -3 147 918 918 918 918 3 -147 3 -147 -918
-918z m0 -500 l-918 -918 -3 147 -3 147 918 918 918 918 3 -147 3 -147 -918
-918z m60 -440 l-858 -858 -62 0 -63 0 0 87 0 88 918 918 917 917 3 -147 3
-147 -858 -858z m245 -245 l-613 -613 -145 0 -145 0 755 755 755 755 3 -142 3
-142 -613 -613z m250 -250 l-363 -363 -150 0 -150 0 510 510 510 510 3 -147 3
-147 -363 -363z m250 -250 l-113 -113 -150 0 -150 0 260 260 260 260 3 -147 3
-147 -113 -113z m112 -103 c0 -5 -5 -10 -11 -10 -5 0 -7 5 -4 10 3 6 8 10 11
10 2 0 4 -4 4 -10z"/>
</g>
</svg>
